<svg xmlns="http://www.w3.org/2000/svg" viewBox="-1255.94 38.41 1101.05 1101.05" role="img" aria-label="Scenario Flow Builder">
  <g transform="matrix(1, 0, 0, 1, -1216.5528564453123, -150.9820556640624)">
    <path fill="#ff8c30" d="M 584.568 228.851 C 584.561 228.849 625.992 252.522 647.261 270.745 C 666.474 287.206 687.931 314.476 689.631 333.401 C 696.251 407.09 667.946 438.869 637.026 480.969 C 605.051 524.505 519.211 569.545 519.211 569.545 C 520.382 571.302 379.126 630.987 309.74 666.721 C 262.422 691.09 202.023 732.136 177.807 787.115 C 156.711 835.011 226.824 900 226.824 900 C 226.824 900 157.574 857.42 139.108 823.234 C 119.396 786.742 109.789 739.666 121.909 700 C 133.585 661.79 168.126 624.09 200 600 C 289.636 532.254 372.343 526.556 481.941 462.051 C 529.707 433.938 578.54 398.232 600 327.896 C 613.723 282.918 584.568 228.851 584.568 228.851 Z"/>
    <path fill="#c2571a" d="M 226.795 900 C 226.795 900 227.672 871.296 231.94 858.17 C 236.5 844.143 252.992 819.25 252.992 819.25 C 252.992 819.25 227.883 806.896 220.027 795.978 C 214.817 788.738 210.656 779.107 212.338 770.347 C 216.891 746.63 238.589 728.413 256.925 712.697 C 286.935 686.975 358.525 654.142 358.525 654.142 C 358.525 654.142 485.358 603.063 542.44 570.712 C 577.975 550.573 612.798 522.815 639.473 490.212 C 659.745 465.435 680.354 411.884 680.354 411.884 C 672.544 429.066 647.726 469.917 620.52 496.72 C 593.961 522.886 570.498 540.095 543.63 555.629 C 501.77 579.83 415.543 615.446 371.154 635.676 C 333.503 652.835 328.994 652.104 285.737 676.604 C 255.824 693.546 213.973 724.578 200 744.058 C 186.218 763.271 171.266 787.18 172.351 811.077 C 173.037 826.176 181.938 847.942 194.265 864.897 C 209.23 885.48 226.795 900 226.795 900 Z"/>
  </g>
  <g transform="matrix(1, 0, 0, 1, -1216.5528564453123, -150.9820556640624)">
    <path fill="#ff8c30" d="M 718.792 364.807 C 718.792 364.807 737.966 404.704 740.763 424.699 C 744.862 454.009 740.958 486.826 729.918 513.283 C 714.828 549.446 686.461 576.161 657.234 600 C 620.064 630.318 530.622 668.385 530.622 668.385 C 530.622 668.385 400.536 720.959 344.939 761.827 C 308.469 788.635 272.649 819.154 251.246 859.179 C 236.556 886.65 228.55 919.117 230.553 950.316 C 232.735 984.308 246.335 1015.877 265.367 1043.92 C 280.579 1066.335 326.201 1100 326.201 1100 C 326.201 1100 297.762 1059.31 294.193 1035.608 C 289.733 1005.988 291.758 977.989 308.721 946.929 C 329.322 909.209 377.443 867.488 413.08 842.995 C 468.385 804.984 534.727 778.67 591.774 750.522 C 651.801 720.904 711.79 688.465 754.053 632.244 C 781.693 595.475 801.678 545.977 800 500 C 798.886 469.493 783.741 441.021 766.423 414.795 C 754.561 396.831 718.792 364.807 718.792 364.807 Z"/>
    <path fill="#c2571a" d="M 718.793 364.811 C 718.793 364.811 714.416 391.089 710.351 403.43 C 706.948 413.763 696.565 433.012 696.565 433.012 C 696.565 433.012 714.474 446.55 720.217 455.573 C 728.652 468.826 736.69 493.027 736.69 493.027 C 736.76 492.992 747.99 453.072 744.13 429.798 C 738.861 398.027 718.793 364.811 718.793 364.811 Z"/>
    <path fill="#c2571a" d="M 797.471 534.079 C 797.471 534.079 791.682 582.437 781.748 604.188 C 767.724 634.893 745.741 662.252 720.987 685.202 C 690.72 713.264 655.546 730.229 618.848 750.775 C 575.869 774.838 526.914 791.524 483.076 816.002 C 452.611 833.013 420.924 850.071 394.983 872.547 C 370.142 894.07 342.716 918.409 327.543 947.565 C 321.481 959.213 318.038 971.864 320.979 985.5 C 324.074 999.85 347.854 1022.112 347.854 1022.112 C 347.854 1022.112 337.482 1046.295 335.001 1059.114 C 331.914 1075.065 326.119 1100 326.119 1100 C 326.119 1100 304.587 1073.973 297.495 1054.243 C 291.337 1037.111 289.672 1019.657 292.157 1000 C 294.894 978.35 297.724 960.682 309.758 942.742 C 328.835 914.304 363.774 879.684 390.698 858.525 C 416.278 838.422 442.398 823.593 471.01 807.82 C 514.491 783.85 557.572 768.081 598.396 746.031 C 636.841 725.266 679.272 704.352 709.599 677.755 C 734.801 655.653 756.676 629.229 773.087 600 C 784.438 579.782 797.471 534.079 797.471 534.079 Z"/>
  </g>
  <g transform="matrix(1, 0, 0, 1, -1216.5528564453123, -150.9820556640624)">
    <path fill="#ff8c30" d="M 824.886 535.159 C 824.886 535.159 846.579 572.087 849.784 591.558 C 853.789 615.893 846.861 646.562 836.545 668.052 C 819.243 704.094 786.009 725.849 755.701 747.813 C 681.465 801.613 586.982 821.785 510.338 872.096 C 470.326 898.361 432.091 926.806 401.307 963.455 C 378.929 990.096 359.135 1018.616 349.499 1054.066 C 341.569 1083.238 332.433 1123.429 344.293 1151.236 C 371.541 1187.477 453.14 1249.201 452.04 1250.982 C 452.573 1250.982 422.373 1206.477 418.639 1179.536 C 415.046 1153.613 419.537 1123.579 430.892 1100 C 448.286 1063.878 482.831 1033.315 510.098 1010.124 C 552.967 973.663 594.428 959.163 644.221 930.642 C 694.504 901.841 752.486 879.836 800 846.665 C 829.168 826.303 860.51 805.19 878.76 774.656 C 897.382 743.498 907.719 706.088 905.414 669.073 C 903.5 638.342 889.188 606.217 872.546 581.001 C 860.219 562.322 824.886 534.626 824.886 535.159 Z"/>
    <path fill="#c2571a" d="M 824.888 535.157 C 824.888 535.157 845.129 567.44 848.816 585.578 C 852.529 603.844 852.074 619.639 849.52 634.344 C 846.906 649.39 833.643 673.785 833.643 673.785 C 833.643 673.785 827.273 646.219 819.554 634.901 C 813.277 625.697 794.256 613.06 794.256 613.06 C 794.256 613.06 809.505 591.528 814.822 577.934 C 819.697 565.47 824.888 535.521 824.888 535.157 Z"/>
    <path fill="#c2571a" d="M 451.792 1250.398 C 451.792 1250.398 435.079 1195.777 436.162 1169.567 C 434.055 1136.717 446.679 1115.554 459.535 1091.213 C 475.14 1061.665 502.344 1035.131 528.103 1013.845 C 567.617 981.192 657.421 936.346 657.421 936.346 C 657.421 936.346 755.556 885.615 800 853.19 C 819.373 839.056 853.2 805.699 853.2 805.699 C 853.2 805.699 811.596 839.664 776.533 860.77 C 741.976 881.572 695.242 900.695 649.032 926.135 C 604.744 950.517 554.742 972 519.736 1000 C 486.435 1026.636 450.198 1061.706 431.141 1096.748 C 416.97 1122.807 414.368 1151.3 417.527 1178.25 C 420.797 1206.142 451.55 1251.465 451.792 1250.398 Z"/>
  </g>
</svg>
