<svg xmlns="http://www.w3.org/2000/svg" viewBox="-322.42 -6.00 568.00 568.00" role="img" aria-label="Scenario Flow Builder">
  <g transform="translate(0,0)"><path d="M2.08 2.74 C2.21 3.72 2.67 6.61 2.87 8.58 C3.06 10.54 3.13 12.57 3.24 14.53 C3.34 16.49 3.44 18.43 3.51 20.34 C3.58 22.25 3.64 24.14 3.67 26.01 C3.71 27.87 3.72 29.71 3.72 31.52 C3.72 33.33 3.70 35.11 3.67 36.87 C3.64 38.63 3.60 40.36 3.54 42.08 C3.49 43.79 3.42 45.48 3.35 47.15 C3.28 48.83 3.20 50.48 3.11 52.13 C3.03 53.78 2.94 55.42 2.85 57.07 C2.76 58.72 2.67 60.36 2.57 62.02 C2.48 63.69 2.40 65.21 2.27 67.08 C2.15 68.94 2.10 70.85 1.83 73.24 C1.56 75.64 1.22 81.50 0.65 81.45 C0.08 81.39 -0.60 75.33 -1.62 72.91 C-2.63 70.48 -4.15 68.63 -5.44 66.91 C-6.72 65.19 -8.12 63.92 -9.33 62.57 C-10.53 61.22 -11.71 60.02 -12.68 58.82 C-13.64 57.63 -14.50 56.54 -15.13 55.40 C-15.75 54.27 -16.20 53.19 -16.43 52.00 C-16.67 50.82 -16.69 49.63 -16.51 48.30 C-16.34 46.97 -15.94 45.58 -15.40 44.02 C-14.86 42.47 -14.10 40.80 -13.25 38.96 C-12.40 37.13 -11.36 35.14 -10.30 33.01 C-9.24 30.88 -8.04 28.59 -6.87 26.19 C-5.70 23.79 -4.45 21.22 -3.31 18.61 C-2.16 16.00 -0.89 13.17 0.01 10.53 C0.91 7.88 1.74 4.04 2.08 2.74 Z" fill="#c25a14"/><path d="M-197.84 252.32 C-199.67 253.40 -205.37 256.39 -208.86 258.77 C-212.34 261.14 -215.67 263.73 -218.74 266.55 C-221.81 269.37 -224.70 272.42 -227.28 275.68 C-229.86 278.94 -232.24 282.44 -234.21 286.13 C-236.19 289.82 -237.98 293.76 -239.13 297.83 C-240.28 301.90 -241.01 306.28 -241.12 310.56 C-241.23 314.84 -240.77 319.31 -239.80 323.52 C-238.82 327.74 -237.25 331.95 -235.29 335.86 C-233.32 339.77 -230.50 343.91 -228.01 346.99 C-225.52 350.07 -222.84 352.28 -220.36 354.32 C-217.88 356.35 -215.57 357.75 -213.14 359.20 C-210.71 360.65 -208.24 361.91 -205.79 363.03 C-203.34 364.14 -200.87 365.07 -198.45 365.89 C-196.02 366.70 -190.43 366.90 -191.25 367.94 C-192.06 368.98 -198.97 370.90 -203.33 372.13 C-207.70 373.35 -212.71 374.73 -217.44 375.28 C-222.16 375.82 -227.16 375.94 -231.69 375.40 C-236.22 374.86 -240.48 374.10 -244.62 372.04 C-248.76 369.97 -252.91 367.33 -256.52 363.02 C-260.13 358.71 -264.04 352.17 -266.25 346.17 C-268.47 340.16 -269.67 333.34 -269.79 326.98 C-269.91 320.63 -268.79 313.92 -266.96 308.04 C-265.14 302.15 -262.10 296.49 -258.84 291.65 C-255.57 286.81 -251.39 282.65 -247.37 279.00 C-243.36 275.35 -238.97 272.42 -234.75 269.74 C-230.53 267.06 -226.23 264.97 -222.06 262.93 C-217.88 260.88 -213.76 259.25 -209.72 257.49 C-205.69 255.72 -199.82 253.18 -197.84 252.32 Z" fill="#c25a14"/><path d="M0.00 0.00 C1.65 0.63 6.70 2.24 9.88 3.79 C13.05 5.35 16.09 7.22 19.03 9.32 C21.98 11.42 24.87 13.78 27.55 16.40 C30.23 19.03 32.82 21.92 35.14 25.07 C37.45 28.23 39.61 31.66 41.43 35.32 C43.25 38.97 44.86 42.91 46.06 47.01 C47.26 51.10 48.18 55.46 48.66 59.90 C49.14 64.34 49.39 67.94 48.94 73.66 C48.50 79.38 47.47 87.45 46.01 94.23 C44.55 101.00 42.55 107.72 40.16 114.32 C37.78 120.91 34.91 127.42 31.68 133.79 C28.46 140.16 24.80 146.42 20.81 152.55 C16.81 158.67 12.43 164.67 7.74 170.52 C3.05 176.37 -2.01 182.09 -7.35 187.64 C-12.69 193.19 -18.39 198.62 -24.31 203.82 C-30.22 209.03 -37.07 214.45 -42.83 218.87 C-48.59 223.30 -53.39 226.65 -58.86 230.36 C-64.33 234.07 -69.98 237.65 -75.66 241.15 C-81.35 244.64 -87.16 248.03 -92.97 251.32 C-98.77 254.62 -104.66 257.82 -110.49 260.94 C-116.32 264.05 -122.19 267.08 -127.94 270.03 C-133.70 272.97 -139.45 275.84 -145.03 278.62 C-150.61 281.40 -156.13 284.11 -161.43 286.73 C-166.73 289.35 -173.18 292.44 -176.82 294.36 C-180.46 296.28 -181.37 296.88 -183.29 298.23 C-185.20 299.58 -186.88 301.05 -188.31 302.47 C-189.73 303.89 -190.88 305.37 -191.82 306.75 C-192.76 308.14 -193.34 309.50 -193.94 310.79 C-194.54 312.08 -194.93 313.18 -195.41 314.48 C-195.88 315.77 -196.44 316.95 -196.79 318.57 C-197.13 320.19 -197.55 321.98 -197.50 324.21 C-197.45 326.43 -196.93 329.39 -196.47 331.91 C-196.01 334.43 -195.39 336.89 -194.75 339.31 C-194.10 341.73 -193.43 344.09 -192.59 346.40 C-191.75 348.72 -190.84 350.99 -189.72 353.18 C-188.60 355.37 -187.35 357.52 -185.89 359.54 C-184.43 361.55 -182.79 363.50 -180.97 365.25 C-179.14 367.01 -177.11 368.66 -174.93 370.08 C-172.76 371.49 -170.38 372.75 -167.89 373.74 C-165.40 374.72 -159.96 375.84 -160.00 376.00 C-160.04 376.16 -165.44 375.09 -168.14 374.69 C-170.85 374.28 -173.51 373.95 -176.22 373.55 C-178.93 373.14 -181.65 372.78 -184.42 372.26 C-187.19 371.75 -190.00 371.21 -192.86 370.46 C-195.71 369.72 -198.63 368.88 -201.55 367.80 C-204.47 366.72 -207.45 365.48 -210.38 363.97 C-213.31 362.47 -216.27 360.75 -219.13 358.77 C-221.98 356.79 -224.54 355.41 -227.53 352.09 C-230.52 348.77 -234.53 343.55 -237.07 338.85 C-239.61 334.14 -241.62 329.01 -242.78 323.87 C-243.93 318.73 -244.36 313.19 -243.99 308.00 C-243.62 302.81 -242.31 297.53 -240.56 292.71 C-238.80 287.89 -236.25 283.31 -233.47 279.08 C-230.69 274.86 -227.40 270.93 -223.88 267.34 C-220.36 263.75 -216.45 260.48 -212.33 257.53 C-208.21 254.58 -203.98 252.25 -199.18 249.64 C-194.38 247.03 -188.87 244.52 -183.55 241.89 C-178.23 239.26 -172.77 236.58 -167.29 233.85 C-161.81 231.12 -156.22 228.33 -150.67 225.49 C-145.13 222.65 -139.52 219.76 -134.01 216.81 C-128.50 213.87 -122.98 210.86 -117.60 207.81 C-112.23 204.76 -106.90 201.66 -101.77 198.51 C-96.65 195.36 -91.62 192.16 -86.85 188.93 C-82.08 185.70 -78.09 182.90 -73.17 179.13 C-68.25 175.35 -62.30 170.64 -57.33 166.28 C-52.36 161.92 -47.72 157.47 -43.37 152.96 C-39.02 148.44 -34.96 143.83 -31.24 139.20 C-27.52 134.58 -24.11 129.88 -21.06 125.20 C-18.00 120.53 -15.27 115.81 -12.90 111.14 C-10.52 106.48 -8.50 101.81 -6.82 97.21 C-5.14 92.62 -3.82 88.05 -2.84 83.57 C-1.86 79.10 -1.35 73.91 -0.94 70.34 C-0.54 66.77 -0.59 64.84 -0.42 62.16 C-0.26 59.48 -0.09 56.90 0.07 54.24 C0.22 51.59 0.39 48.97 0.52 46.25 C0.65 43.53 0.78 40.77 0.86 37.93 C0.94 35.08 1.00 32.16 1.00 29.16 C0.99 26.16 0.94 23.08 0.84 19.93 C0.74 16.78 0.53 13.59 0.39 10.27 C0.25 6.95 0.06 1.71 0.00 0.00 Z" fill="#ff8c30"/></g>
  <g transform="translate(72,90)"><path d="M2.08 2.74 C2.21 3.72 2.67 6.61 2.87 8.58 C3.06 10.54 3.13 12.57 3.24 14.53 C3.34 16.49 3.44 18.43 3.51 20.34 C3.58 22.25 3.64 24.14 3.67 26.01 C3.71 27.87 3.72 29.71 3.72 31.52 C3.72 33.33 3.70 35.11 3.67 36.87 C3.64 38.63 3.60 40.36 3.54 42.08 C3.49 43.79 3.42 45.48 3.35 47.15 C3.28 48.83 3.20 50.48 3.11 52.13 C3.03 53.78 2.94 55.42 2.85 57.07 C2.76 58.72 2.67 60.36 2.57 62.02 C2.48 63.69 2.40 65.21 2.27 67.08 C2.15 68.94 2.10 70.85 1.83 73.24 C1.56 75.64 1.22 81.50 0.65 81.45 C0.08 81.39 -0.60 75.33 -1.62 72.91 C-2.63 70.48 -4.15 68.63 -5.44 66.91 C-6.72 65.19 -8.12 63.92 -9.33 62.57 C-10.53 61.22 -11.71 60.02 -12.68 58.82 C-13.64 57.63 -14.50 56.54 -15.13 55.40 C-15.75 54.27 -16.20 53.19 -16.43 52.00 C-16.67 50.82 -16.69 49.63 -16.51 48.30 C-16.34 46.97 -15.94 45.58 -15.40 44.02 C-14.86 42.47 -14.10 40.80 -13.25 38.96 C-12.40 37.13 -11.36 35.14 -10.30 33.01 C-9.24 30.88 -8.04 28.59 -6.87 26.19 C-5.70 23.79 -4.45 21.22 -3.31 18.61 C-2.16 16.00 -0.89 13.17 0.01 10.53 C0.91 7.88 1.74 4.04 2.08 2.74 Z" fill="#c25a14"/><path d="M-197.84 252.32 C-199.67 253.40 -205.37 256.39 -208.86 258.77 C-212.34 261.14 -215.67 263.73 -218.74 266.55 C-221.81 269.37 -224.70 272.42 -227.28 275.68 C-229.86 278.94 -232.24 282.44 -234.21 286.13 C-236.19 289.82 -237.98 293.76 -239.13 297.83 C-240.28 301.90 -241.01 306.28 -241.12 310.56 C-241.23 314.84 -240.77 319.31 -239.80 323.52 C-238.82 327.74 -237.25 331.95 -235.29 335.86 C-233.32 339.77 -230.50 343.91 -228.01 346.99 C-225.52 350.07 -222.84 352.28 -220.36 354.32 C-217.88 356.35 -215.57 357.75 -213.14 359.20 C-210.71 360.65 -208.24 361.91 -205.79 363.03 C-203.34 364.14 -200.87 365.07 -198.45 365.89 C-196.02 366.70 -190.43 366.90 -191.25 367.94 C-192.06 368.98 -198.97 370.90 -203.33 372.13 C-207.70 373.35 -212.71 374.73 -217.44 375.28 C-222.16 375.82 -227.16 375.94 -231.69 375.40 C-236.22 374.86 -240.48 374.10 -244.62 372.04 C-248.76 369.97 -252.91 367.33 -256.52 363.02 C-260.13 358.71 -264.04 352.17 -266.25 346.17 C-268.47 340.16 -269.67 333.34 -269.79 326.98 C-269.91 320.63 -268.79 313.92 -266.96 308.04 C-265.14 302.15 -262.10 296.49 -258.84 291.65 C-255.57 286.81 -251.39 282.65 -247.37 279.00 C-243.36 275.35 -238.97 272.42 -234.75 269.74 C-230.53 267.06 -226.23 264.97 -222.06 262.93 C-217.88 260.88 -213.76 259.25 -209.72 257.49 C-205.69 255.72 -199.82 253.18 -197.84 252.32 Z" fill="#c25a14"/><path d="M0.00 0.00 C1.65 0.63 6.70 2.24 9.88 3.79 C13.05 5.35 16.09 7.22 19.03 9.32 C21.98 11.42 24.87 13.78 27.55 16.40 C30.23 19.03 32.82 21.92 35.14 25.07 C37.45 28.23 39.61 31.66 41.43 35.32 C43.25 38.97 44.86 42.91 46.06 47.01 C47.26 51.10 48.18 55.46 48.66 59.90 C49.14 64.34 49.39 67.94 48.94 73.66 C48.50 79.38 47.47 87.45 46.01 94.23 C44.55 101.00 42.55 107.72 40.16 114.32 C37.78 120.91 34.91 127.42 31.68 133.79 C28.46 140.16 24.80 146.42 20.81 152.55 C16.81 158.67 12.43 164.67 7.74 170.52 C3.05 176.37 -2.01 182.09 -7.35 187.64 C-12.69 193.19 -18.39 198.62 -24.31 203.82 C-30.22 209.03 -37.07 214.45 -42.83 218.87 C-48.59 223.30 -53.39 226.65 -58.86 230.36 C-64.33 234.07 -69.98 237.65 -75.66 241.15 C-81.35 244.64 -87.16 248.03 -92.97 251.32 C-98.77 254.62 -104.66 257.82 -110.49 260.94 C-116.32 264.05 -122.19 267.08 -127.94 270.03 C-133.70 272.97 -139.45 275.84 -145.03 278.62 C-150.61 281.40 -156.13 284.11 -161.43 286.73 C-166.73 289.35 -173.18 292.44 -176.82 294.36 C-180.46 296.28 -181.37 296.88 -183.29 298.23 C-185.20 299.58 -186.88 301.05 -188.31 302.47 C-189.73 303.89 -190.88 305.37 -191.82 306.75 C-192.76 308.14 -193.34 309.50 -193.94 310.79 C-194.54 312.08 -194.93 313.18 -195.41 314.48 C-195.88 315.77 -196.44 316.95 -196.79 318.57 C-197.13 320.19 -197.55 321.98 -197.50 324.21 C-197.45 326.43 -196.93 329.39 -196.47 331.91 C-196.01 334.43 -195.39 336.89 -194.75 339.31 C-194.10 341.73 -193.43 344.09 -192.59 346.40 C-191.75 348.72 -190.84 350.99 -189.72 353.18 C-188.60 355.37 -187.35 357.52 -185.89 359.54 C-184.43 361.55 -182.79 363.50 -180.97 365.25 C-179.14 367.01 -177.11 368.66 -174.93 370.08 C-172.76 371.49 -170.38 372.75 -167.89 373.74 C-165.40 374.72 -159.96 375.84 -160.00 376.00 C-160.04 376.16 -165.44 375.09 -168.14 374.69 C-170.85 374.28 -173.51 373.95 -176.22 373.55 C-178.93 373.14 -181.65 372.78 -184.42 372.26 C-187.19 371.75 -190.00 371.21 -192.86 370.46 C-195.71 369.72 -198.63 368.88 -201.55 367.80 C-204.47 366.72 -207.45 365.48 -210.38 363.97 C-213.31 362.47 -216.27 360.75 -219.13 358.77 C-221.98 356.79 -224.54 355.41 -227.53 352.09 C-230.52 348.77 -234.53 343.55 -237.07 338.85 C-239.61 334.14 -241.62 329.01 -242.78 323.87 C-243.93 318.73 -244.36 313.19 -243.99 308.00 C-243.62 302.81 -242.31 297.53 -240.56 292.71 C-238.80 287.89 -236.25 283.31 -233.47 279.08 C-230.69 274.86 -227.40 270.93 -223.88 267.34 C-220.36 263.75 -216.45 260.48 -212.33 257.53 C-208.21 254.58 -203.98 252.25 -199.18 249.64 C-194.38 247.03 -188.87 244.52 -183.55 241.89 C-178.23 239.26 -172.77 236.58 -167.29 233.85 C-161.81 231.12 -156.22 228.33 -150.67 225.49 C-145.13 222.65 -139.52 219.76 -134.01 216.81 C-128.50 213.87 -122.98 210.86 -117.60 207.81 C-112.23 204.76 -106.90 201.66 -101.77 198.51 C-96.65 195.36 -91.62 192.16 -86.85 188.93 C-82.08 185.70 -78.09 182.90 -73.17 179.13 C-68.25 175.35 -62.30 170.64 -57.33 166.28 C-52.36 161.92 -47.72 157.47 -43.37 152.96 C-39.02 148.44 -34.96 143.83 -31.24 139.20 C-27.52 134.58 -24.11 129.88 -21.06 125.20 C-18.00 120.53 -15.27 115.81 -12.90 111.14 C-10.52 106.48 -8.50 101.81 -6.82 97.21 C-5.14 92.62 -3.82 88.05 -2.84 83.57 C-1.86 79.10 -1.35 73.91 -0.94 70.34 C-0.54 66.77 -0.59 64.84 -0.42 62.16 C-0.26 59.48 -0.09 56.90 0.07 54.24 C0.22 51.59 0.39 48.97 0.52 46.25 C0.65 43.53 0.78 40.77 0.86 37.93 C0.94 35.08 1.00 32.16 1.00 29.16 C0.99 26.16 0.94 23.08 0.84 19.93 C0.74 16.78 0.53 13.59 0.39 10.27 C0.25 6.95 0.06 1.71 0.00 0.00 Z" fill="#ff8c30"/></g>
  <g transform="translate(144,180)"><path d="M2.08 2.74 C2.21 3.72 2.67 6.61 2.87 8.58 C3.06 10.54 3.13 12.57 3.24 14.53 C3.34 16.49 3.44 18.43 3.51 20.34 C3.58 22.25 3.64 24.14 3.67 26.01 C3.71 27.87 3.72 29.71 3.72 31.52 C3.72 33.33 3.70 35.11 3.67 36.87 C3.64 38.63 3.60 40.36 3.54 42.08 C3.49 43.79 3.42 45.48 3.35 47.15 C3.28 48.83 3.20 50.48 3.11 52.13 C3.03 53.78 2.94 55.42 2.85 57.07 C2.76 58.72 2.67 60.36 2.57 62.02 C2.48 63.69 2.40 65.21 2.27 67.08 C2.15 68.94 2.10 70.85 1.83 73.24 C1.56 75.64 1.22 81.50 0.65 81.45 C0.08 81.39 -0.60 75.33 -1.62 72.91 C-2.63 70.48 -4.15 68.63 -5.44 66.91 C-6.72 65.19 -8.12 63.92 -9.33 62.57 C-10.53 61.22 -11.71 60.02 -12.68 58.82 C-13.64 57.63 -14.50 56.54 -15.13 55.40 C-15.75 54.27 -16.20 53.19 -16.43 52.00 C-16.67 50.82 -16.69 49.63 -16.51 48.30 C-16.34 46.97 -15.94 45.58 -15.40 44.02 C-14.86 42.47 -14.10 40.80 -13.25 38.96 C-12.40 37.13 -11.36 35.14 -10.30 33.01 C-9.24 30.88 -8.04 28.59 -6.87 26.19 C-5.70 23.79 -4.45 21.22 -3.31 18.61 C-2.16 16.00 -0.89 13.17 0.01 10.53 C0.91 7.88 1.74 4.04 2.08 2.74 Z" fill="#c25a14"/><path d="M-197.84 252.32 C-199.67 253.40 -205.37 256.39 -208.86 258.77 C-212.34 261.14 -215.67 263.73 -218.74 266.55 C-221.81 269.37 -224.70 272.42 -227.28 275.68 C-229.86 278.94 -232.24 282.44 -234.21 286.13 C-236.19 289.82 -237.98 293.76 -239.13 297.83 C-240.28 301.90 -241.01 306.28 -241.12 310.56 C-241.23 314.84 -240.77 319.31 -239.80 323.52 C-238.82 327.74 -237.25 331.95 -235.29 335.86 C-233.32 339.77 -230.50 343.91 -228.01 346.99 C-225.52 350.07 -222.84 352.28 -220.36 354.32 C-217.88 356.35 -215.57 357.75 -213.14 359.20 C-210.71 360.65 -208.24 361.91 -205.79 363.03 C-203.34 364.14 -200.87 365.07 -198.45 365.89 C-196.02 366.70 -190.43 366.90 -191.25 367.94 C-192.06 368.98 -198.97 370.90 -203.33 372.13 C-207.70 373.35 -212.71 374.73 -217.44 375.28 C-222.16 375.82 -227.16 375.94 -231.69 375.40 C-236.22 374.86 -240.48 374.10 -244.62 372.04 C-248.76 369.97 -252.91 367.33 -256.52 363.02 C-260.13 358.71 -264.04 352.17 -266.25 346.17 C-268.47 340.16 -269.67 333.34 -269.79 326.98 C-269.91 320.63 -268.79 313.92 -266.96 308.04 C-265.14 302.15 -262.10 296.49 -258.84 291.65 C-255.57 286.81 -251.39 282.65 -247.37 279.00 C-243.36 275.35 -238.97 272.42 -234.75 269.74 C-230.53 267.06 -226.23 264.97 -222.06 262.93 C-217.88 260.88 -213.76 259.25 -209.72 257.49 C-205.69 255.72 -199.82 253.18 -197.84 252.32 Z" fill="#c25a14"/><path d="M0.00 0.00 C1.65 0.63 6.70 2.24 9.88 3.79 C13.05 5.35 16.09 7.22 19.03 9.32 C21.98 11.42 24.87 13.78 27.55 16.40 C30.23 19.03 32.82 21.92 35.14 25.07 C37.45 28.23 39.61 31.66 41.43 35.32 C43.25 38.97 44.86 42.91 46.06 47.01 C47.26 51.10 48.18 55.46 48.66 59.90 C49.14 64.34 49.39 67.94 48.94 73.66 C48.50 79.38 47.47 87.45 46.01 94.23 C44.55 101.00 42.55 107.72 40.16 114.32 C37.78 120.91 34.91 127.42 31.68 133.79 C28.46 140.16 24.80 146.42 20.81 152.55 C16.81 158.67 12.43 164.67 7.74 170.52 C3.05 176.37 -2.01 182.09 -7.35 187.64 C-12.69 193.19 -18.39 198.62 -24.31 203.82 C-30.22 209.03 -37.07 214.45 -42.83 218.87 C-48.59 223.30 -53.39 226.65 -58.86 230.36 C-64.33 234.07 -69.98 237.65 -75.66 241.15 C-81.35 244.64 -87.16 248.03 -92.97 251.32 C-98.77 254.62 -104.66 257.82 -110.49 260.94 C-116.32 264.05 -122.19 267.08 -127.94 270.03 C-133.70 272.97 -139.45 275.84 -145.03 278.62 C-150.61 281.40 -156.13 284.11 -161.43 286.73 C-166.73 289.35 -173.18 292.44 -176.82 294.36 C-180.46 296.28 -181.37 296.88 -183.29 298.23 C-185.20 299.58 -186.88 301.05 -188.31 302.47 C-189.73 303.89 -190.88 305.37 -191.82 306.75 C-192.76 308.14 -193.34 309.50 -193.94 310.79 C-194.54 312.08 -194.93 313.18 -195.41 314.48 C-195.88 315.77 -196.44 316.95 -196.79 318.57 C-197.13 320.19 -197.55 321.98 -197.50 324.21 C-197.45 326.43 -196.93 329.39 -196.47 331.91 C-196.01 334.43 -195.39 336.89 -194.75 339.31 C-194.10 341.73 -193.43 344.09 -192.59 346.40 C-191.75 348.72 -190.84 350.99 -189.72 353.18 C-188.60 355.37 -187.35 357.52 -185.89 359.54 C-184.43 361.55 -182.79 363.50 -180.97 365.25 C-179.14 367.01 -177.11 368.66 -174.93 370.08 C-172.76 371.49 -170.38 372.75 -167.89 373.74 C-165.40 374.72 -159.96 375.84 -160.00 376.00 C-160.04 376.16 -165.44 375.09 -168.14 374.69 C-170.85 374.28 -173.51 373.95 -176.22 373.55 C-178.93 373.14 -181.65 372.78 -184.42 372.26 C-187.19 371.75 -190.00 371.21 -192.86 370.46 C-195.71 369.72 -198.63 368.88 -201.55 367.80 C-204.47 366.72 -207.45 365.48 -210.38 363.97 C-213.31 362.47 -216.27 360.75 -219.13 358.77 C-221.98 356.79 -224.54 355.41 -227.53 352.09 C-230.52 348.77 -234.53 343.55 -237.07 338.85 C-239.61 334.14 -241.62 329.01 -242.78 323.87 C-243.93 318.73 -244.36 313.19 -243.99 308.00 C-243.62 302.81 -242.31 297.53 -240.56 292.71 C-238.80 287.89 -236.25 283.31 -233.47 279.08 C-230.69 274.86 -227.40 270.93 -223.88 267.34 C-220.36 263.75 -216.45 260.48 -212.33 257.53 C-208.21 254.58 -203.98 252.25 -199.18 249.64 C-194.38 247.03 -188.87 244.52 -183.55 241.89 C-178.23 239.26 -172.77 236.58 -167.29 233.85 C-161.81 231.12 -156.22 228.33 -150.67 225.49 C-145.13 222.65 -139.52 219.76 -134.01 216.81 C-128.50 213.87 -122.98 210.86 -117.60 207.81 C-112.23 204.76 -106.90 201.66 -101.77 198.51 C-96.65 195.36 -91.62 192.16 -86.85 188.93 C-82.08 185.70 -78.09 182.90 -73.17 179.13 C-68.25 175.35 -62.30 170.64 -57.33 166.28 C-52.36 161.92 -47.72 157.47 -43.37 152.96 C-39.02 148.44 -34.96 143.83 -31.24 139.20 C-27.52 134.58 -24.11 129.88 -21.06 125.20 C-18.00 120.53 -15.27 115.81 -12.90 111.14 C-10.52 106.48 -8.50 101.81 -6.82 97.21 C-5.14 92.62 -3.82 88.05 -2.84 83.57 C-1.86 79.10 -1.35 73.91 -0.94 70.34 C-0.54 66.77 -0.59 64.84 -0.42 62.16 C-0.26 59.48 -0.09 56.90 0.07 54.24 C0.22 51.59 0.39 48.97 0.52 46.25 C0.65 43.53 0.78 40.77 0.86 37.93 C0.94 35.08 1.00 32.16 1.00 29.16 C0.99 26.16 0.94 23.08 0.84 19.93 C0.74 16.78 0.53 13.59 0.39 10.27 C0.25 6.95 0.06 1.71 0.00 0.00 Z" fill="#ff8c30"/></g>
</svg>
